<svg xmlns="http://www.w3.org/2000/svg" width="512" height="512" viewBox="248 238 528 543" fill="none">
  <g transform="translate(0 1024) scale(0.1 -0.1)" fill="currentColor">
    <path d="M4770 7824c-424-37-552-54-810-105-343-68-624-153-949-286l-114-47 6-456c7-483 15-633 48-958 50-500 129-894 253-1266 181-539 444-987 822-1401 269-293 669-609 1010-796l76-42 65 32c106 52 317 187 467 299 717 535 1200 1228 1440 2069 172 601 241 1163 253 2054l6 457-25 16c-41 27-315 132-470 180-380 118-734 189-1148 231-147 15-817 29-930 19zm880-273c292-30 618-88 880-157 142-38 421-128 503-163l48-21-2-282c-6-879-97-1561-284-2124-242-729-672-1324-1289-1786-124-93-367-248-387-248-20 0-248 144-364 230-263 196-547 469-719 690-498 643-750 1372-841 2430-21 247-37 681-33 905l3 190 100 38c405 154 925 264 1450 306 142 12 798 6 935-8z"/>
    <path d="M4941 7055c-222-49-358-145-435-309-117-249-72-521 121-726 97-103 206-185 554-416 394-261 537-378 658-539 110-146 155-285 155-475-1-142-15-222-67-358-40-106-30-105 52 8 135 183 191 357 191 593 0 137-15 218-57 328-42 108-93 180-207 295-126 125-249 208-581 389-296 162-396 227-486 317-127 127-176 292-134 453 59 225 299 346 573 289 296-61 500-285 574-632 11-54 22-103 24-109 2-9 24-13 64-13l60 0 0 430 0 430-45 0c-25 0-45-4-45-9 0-15-54-45-79-43-13 1-80 18-150 37-200 55-339 75-519 74-93 0-183-6-221-14z"/>
    <path d="M4280 6713c-78-98-159-251-185-353-26-100-31-308-11-411 35-172 99-283 250-435 125-124 276-226 571-384 381-203 523-316 601-474 36-75 39-86 42-187 6-163-27-255-125-351-96-94-217-133-388-125-185 8-328 67-465 194-146 135-239 315-289 559l-19 89-53-2c-30-2-59-5-65-7-8-3-10-134-7-463l5-458 39-3c34-3 46 2 80 32 21 20 48 36 59 36 11 0 89-20 173-44 312-91 536-112 782-74 314 48 507 265 522 588 6 135-12 227-69 340-36 71-62 104-153 196-128 129-183 170-520 392-390 256-533 372-645 520-179 237-211 537-87 830 19 45 33 82 31 82-2 0-36-39-74-87z"/>
  </g>
</svg>